<svg width="116" height="28" viewBox="0 0 116 28" fill="none" xmlns="http://www.w3.org/2000/svg">
<path d="M13.2767 27.7005L6.91306 18.9412V27.7005H0.511993V0H6.91306V15.3102L13.2393 6.81283H21.1377L12.4532 17.2941L21.2125 27.7005H13.2767Z" fill="#F2994A"/>
<path d="M33.1598 28C31.1135 28 29.2668 27.5633 27.6197 26.6898C25.9976 25.8164 24.7124 24.5686 23.7641 22.9465C22.8408 21.3244 22.3791 19.4278 22.3791 17.2567C22.3791 15.1105 22.8533 13.2264 23.8016 11.6043C24.7499 9.95722 26.0475 8.69697 27.6946 7.82353C29.3417 6.95009 31.1884 6.51337 33.2347 6.51337C35.2811 6.51337 37.1278 6.95009 38.7748 7.82353C40.4219 8.69697 41.7196 9.95722 42.6679 11.6043C43.6162 13.2264 44.0903 15.1105 44.0903 17.2567C44.0903 19.4029 43.6037 21.2995 42.6304 22.9465C41.6821 24.5686 40.372 25.8164 38.7 26.6898C37.0529 27.5633 35.2062 28 33.1598 28ZM33.1598 22.4599C34.3827 22.4599 35.4183 22.0107 36.2668 21.1123C37.1402 20.2139 37.577 18.9287 37.577 17.2567C37.577 15.5847 37.1527 14.2995 36.3042 13.4011C35.4807 12.5027 34.4575 12.0535 33.2347 12.0535C31.9869 12.0535 30.9513 12.5027 30.1278 13.4011C29.3042 14.2745 28.8925 15.5597 28.8925 17.2567C28.8925 18.9287 29.2918 20.2139 30.0903 21.1123C30.9139 22.0107 31.937 22.4599 33.1598 22.4599Z" fill="#F2994A"/>
<path d="M60.2509 27.7005L53.8873 18.9412V27.7005H47.4862V0H53.8873V15.3102L60.2135 6.81283H68.1119L59.4274 17.2941L68.1868 27.7005H60.2509Z" fill="#F2994A"/>
<path d="M91.2517 6.81283V27.7005H84.8507V24.8556C84.2018 25.779 83.3159 26.5276 82.1929 27.1016C81.0949 27.6506 79.872 27.9251 78.5244 27.9251C76.9273 27.9251 75.5173 27.5758 74.2945 26.877C73.0717 26.1533 72.1234 25.1176 71.4496 23.7701C70.7758 22.4225 70.4389 20.8378 70.4389 19.016V6.81283H76.8025V18.1551C76.8025 19.5526 77.1644 20.6381 77.8881 21.4118C78.6118 22.1854 79.5851 22.5722 80.8079 22.5722C82.0556 22.5722 83.0414 22.1854 83.7651 21.4118C84.4888 20.6381 84.8507 19.5526 84.8507 18.1551V6.81283H91.2517Z" fill="#F2994A"/>
<path d="M115.539 16.9198C115.539 17.5187 115.502 18.1426 115.427 18.7914H100.94C101.04 20.0891 101.452 21.0873 102.176 21.7861C102.924 22.4599 103.835 22.7968 104.908 22.7968C106.506 22.7968 107.616 22.123 108.24 20.7754H115.053C114.703 22.1479 114.067 23.3832 113.144 24.4813C112.245 25.5793 111.11 26.4403 109.737 27.0642C108.365 27.6881 106.83 28 105.133 28C103.087 28 101.265 27.5633 99.6678 26.6898C98.0706 25.8164 96.8228 24.5686 95.9244 22.9465C95.026 21.3244 94.5768 19.4278 94.5768 17.2567C94.5768 15.0856 95.0136 13.1889 95.887 11.5668C96.7854 9.94474 98.0332 8.69697 99.6303 7.82353C101.227 6.95009 103.062 6.51337 105.133 6.51337C107.154 6.51337 108.951 6.93761 110.523 7.7861C112.096 8.63458 113.318 9.84492 114.192 11.4171C115.09 12.9893 115.539 14.8235 115.539 16.9198ZM108.989 15.2353C108.989 14.1373 108.614 13.2638 107.866 12.615C107.117 11.9661 106.181 11.6417 105.058 11.6417C103.985 11.6417 103.074 11.9537 102.326 12.5775C101.602 13.2014 101.153 14.0873 100.978 15.2353H108.989Z" fill="#F2994A"/>
</svg>
